# xmcd
#
# Track frame offsets:
#	182
#	16477
#	47562
#	65015
#	85562
#	109337
#	143985
#
# Disc length: 2314 seconds
#
# Revision: 0
# Processed by: cddbd v1.4PL0 Copyright (c) Steve Scherf et al.
# Submitted via: dBpowerAMP V4.0
#
DISCID=5a090807
DTITLE=Buster Smith - The Legendary Buster Smith
DYEAR=1900
DGENRE=Blues
TTITLE0=Buster's Tune
TTITLE1=E-Flat Boogie
TTITLE2=September Song
TTITLE3=King Alcohol
TTITLE4=Kansas City Riffs
TTITLE5=Late Late
TTITLE6=Organ Grinder's Swing
EXTD=
EXTT0=
EXTT1=
EXTT2=
EXTT3=
EXTT4=
EXTT5=
EXTT6=
PLAYORDER=
